<?xml version="1.0" encoding="UTF-8"?>
<svg id="mapp" xmlns="http://www.w3.org/2000/svg" viewBox="0 0 476 841">
  <path id="jeolla" d="M211.44,691.15c-1.37-4.88-4.35-9-9.4-13.03-2.72-2.33-10.81-9.27-7.04-16.87.55-1.02,1.18-1.94,1.78-2.84,1.28-1.89,2.6-3.84,2.82-5.92,0-.08.02-.17.04-.25,1.92-9.15,1.01-18.38.12-27.32-1-10.03-2.03-20.4,1.04-30.48,5.02-15.15,15.97-29.44,29.45-38.63.31-.22.61-.45.92-.66,1.32-.94,2.63-1.73,3.91-2.49.69-.41,1.34-.8,1.95-1.19,1.17-.86,2.12-1.79,2.76-2.98.71-1.28,1.15-2.92,1.31-4.78.15-1.66-.05-3.2-.25-4.83-.17-1.34-.34-2.71-.31-4.14-1.63-.12-3.33-.67-5.08-1.65-5.56-2.54-13.37-3.84-20.95-3.48-1.33.24-2.24.98-3.4,1.91-.29.23-.58.47-.87.69-2.49,2.13-5.54,2.06-8,2-1.91-.05-3.56-.09-4.62.77-.7.55-1.15,1.91-1.58,3.22-.55,1.68-1.18,3.59-2.65,4.86-.04.03-.08.07-.12.1-1.38,1.05-2.89,1.46-4.42,1.46-3.74,0-7.6-2.43-10-3.94-6.08-4.08-11.38-7.83-15.16-12.96-1.25-1.58-2.14-3.42-2.99-5.19-.47-.98-.92-1.91-1.41-2.75-1.25-2.22-3.22-1.98-9.17,1.09-.77.4-1.51.78-2.21,1.11-.75.37-1.6.86-2.51,1.37-3.62,2.05-7.73,4.37-12.03,3.61-.05,0-.1-.02-.15-.03-4.32-1.03-6.42-4.59-8.27-7.73-1.12-1.9-2.18-3.7-3.57-4.73-5.13-4.04-15.57-4.4-20.5.88-.22.22-.38.48-.51.76,0,.29,0,.6.03.92.55,3.81.94,6.59.05,8.77-.17,2.45-1.12,4.81-4.33,5.82-1.29.42-2.72.58-3.98.73-.34.04-.67.08-1,.12-2.06.22-3.83,1.01-5.88,1.92-1.58.71-3.21,1.44-5.11,1.96-.05.01-.1.03-.15.04-.43.09-.88.19-1.33.29-3.08.67-6.9,1.5-10.48.93-.31.55-.48,1.24-.54,2.12-.24,2.97-1.02,5.4-1.65,7.36-.48,1.5-1.02,3.19-.73,3.68.15.25.96,1.11,5.3,1.92,9.18,1.81,9.55,8.01,8.95,11.55-.66,4.83-.96,9.04-.9,12.81.18,3.29-.5,5.68-2.08,7.3-2.41,2.47-6.06,2.36-9.6,2.25-.96-.03-1.96-.06-2.92-.04-6.86.16-11.79,1.51-15.5,4.27-.04.03-.08.06-.12.08-3.19,2.09-5.25,6.61-5.12,11.25.1,3.67,1.52,6.56,3.89,7.94,1.96,1.23,4.35,1.06,7.11.87,2.17-.15,4.41-.31,6.64.21,2.2.51,4.02,1.73,5,3.36.72,1.2.93,2.55.61,3.83-.7,3.13-4.14,4.94-7.06,6.17-17.29,7.05-31.54,21.54-38.14,38.79-1.41,3.6-1.71,7.86-.92,12.67,1.14,7.36,2.25,16.95.69,26.11-.82,4.12-.29,8.31,1.57,12.51,2.27,5.62,3.16,11.68,2.62,17.63l-.03.37c-.05.65-.15,1.85-.07,2.56.07-.02.16-.04.25-.07.04-.01.07-.02.11-.03,1.54-.41,3.2-1.18,4.95-1.98,3.67-1.69,7.83-3.6,12.29-2.83,6.42,1.36,10.69,9.02,10.57,15.04-.07,2.59-1.37,7.22-9.32,9.29-.64.22-1.34.4-2.07.6-.87.23-2.49.66-3.28,1.09.64.98,2.68,2.64,3.86,3.6,3.4,2.76,7.25,5.89,6.6,10.13-.53,3.44-3.96,6.32-10.8,9.07-1.06.53-2.22,1.62-2.03,5.22.44,10,0,19.87-1.3,29.37-.39,2.42-.3,3.47-.21,3.88.4-.03,1.37-.23,3.29-1.21,12.78-6.08,23.95-16.06,31.52-28.15.02-.03.04-.06.06-.09,1.25-1.81,3.11-4.53,5.93-4.55.05,0,.13,0,.19,0,4.38.31,6.14,5.71,7.08,9.74.12.57.21,1.1.3,1.65.32,1.87.72,4.19,1.78,4.87,2.6,1.23,7.76,1.15,9.92.18.55-.26,1.11-1.83,1.02-3.99-.03-1.96-.12-3.94-.21-5.85-.13-2.71-.26-5.5-.22-8.26-.13-6.22,4.79-7.91,8.05-9.02,1.42-.49,2.76-.95,3.74-1.63,1.18-.79,2.21-1.81,3.29-2.89,1.71-1.71,3.66-3.65,6.35-4.7,2.53-1.08,5.56-1.24,8.49-1.38.76-.04,1.51-.08,2.26-.13l7.44-.43c3.8-.22,7.61-.44,11.41-.66,6.77-.75,8.89,2.37,9.48,3.75.61,1.42,1.44,5.24-4.13,9.92-.08.07-.17.13-.26.19-2.07,1.33-3.82,1.97-5.22,2.49-2.5.92-3.64,1.34-5.19,5.4-.04.11-.1.22-.16.33-.63,1.13-1.4,2.15-2.08,3.04-.63.83-1.68,2.23-1.67,2.7,0,0,.15.33,1,.87,4.55,2.94,10.97,3.24,16.78.79,5.28-2.23,8.85-6.25,9.81-11.02.82-3.65.23-7.4-.4-11.37-.59-3.77-1.21-7.66-.64-11.67.51-4.58,3.96-9.59,8.02-11.58,2.91-1.43,6-1.3,8.68.34,3.75,2.4,4.7,8.34,5.61,14.09.47,2.94,1.32,8.27,2.53,9.23,1.58-.05,2.84-1.56,4.67-3.96,1.71-2.25,3.65-4.81,6.65-5.3.07-.01.14-.02.21-.02,2.35-.19,4.3.87,6.01,1.8,1.03.56,2.01,1.09,2.79,1.18.31.02,1.53.13,2.14-2.79.99-4.72-1.04-10.76-2.68-11.32-.08-.03-.17-.06-.25-.1-1.13-.52-2.53-.64-4.02-.76-1.58-.13-3.38-.28-5.14-.95-2.48-.89-4.84-2.56-6.62-4.71-2.88-3.37-3.86-7.58-2.47-10.7.68-1.54,2.55-4.13,7.39-4.26l1.14-.04c5.75-.2,16.27-.57,19.7-4.92-.38-.94-.62-1.95-.81-2.92-1.44-8.95-3.07-18.39-5.98-27.55Z" fill="#ddd7ce"/>
  <path id="chungcheong" d="M29.36,416.83c.67.99,1.05,2.19,1.42,3.36.22.7.61,1.94.95,2.42.67-.46,1.81-1.69,2.53-2.46,2.13-2.31,4.33-4.69,7.06-3.98,2.52.65,3.21,3.47,3.43,4.4.02.06.03.13.04.19,1.85,11.34,5.49,21.22,10.81,29.36,6.03,8.32,2.94,13.65-.97,20.39-2.73,4.78-2.01,10.18-.97,15.77.36,2.34.72,4.6,1.07,6.86.58,3.7,1.19,7.53,1.73,11.29.6,3.8-.12,7.83-1.99,11.05l-.06.12c-.38.74-.88,1.75-.75,2.09.68.88,1.74,1.68,2.86,2.53,1.23.93,2.51,1.89,3.58,3.16,1.33,1.4,2.36,3.03,3.27,4.48.87,1.38,1.68,2.68,2.56,3.46.32.27.66.5,1.02.69,2.81,1.46,6.93.56,10.62-.25.44-.1.88-.19,1.3-.28,1.49-.42,2.87-1.03,4.32-1.68,2.23-1,4.54-2.03,7.33-2.33.28-.04.65-.08,1.01-.12,1.08-.12,2.2-.25,3.04-.53.68-.22.99-.54.86-2.54-.04-.57-.1-1.26-.21-2.13-.28-2.3-.61-5,.24-7.42.36-1.02.92-2,1.8-2.88,6.88-7.35,20.26-6.79,27.14-1.37,2.15,1.6,3.52,3.92,4.84,6.16,1.52,2.59,2.84,4.82,5.05,5.39,2.53.39,5.77-1.43,8.63-3.05.96-.54,1.87-1.06,2.78-1.51.7-.33,1.39-.69,2.1-1.06,2.54-1.31,6.06-3.13,9.34-3.13,2.45,0,4.77,1.01,6.45,3.99.58.99,1.09,2.05,1.58,3.07.77,1.6,1.5,3.11,2.46,4.32,3.35,4.55,8.28,8.03,13.91,11.8,2.1,1.32,6.57,4.13,8.59,2.75.41-.42.8-1.62,1.12-2.59.63-1.93,1.35-4.12,3.22-5.58,2.46-1.98,5.45-1.91,7.85-1.85,2.24.06,3.66.04,4.65-.82.04-.04.09-.08.14-.11.27-.21.54-.42.81-.64,1.41-1.14,3.17-2.57,5.9-2.99.08-.01.17-.02.26-.03,8.45-.41,17.23,1.07,23.53,3.97.07.03.13.06.19.1,1.44.82,2.68,1.17,3.78,1.06.11-.25.22-.5.35-.74.62-1.24,1.37-2.37,2.11-3.48.73-1.09,1.41-2.11,1.91-3.17.77-1.52,1.4-3.06,2.07-4.68.6-1.46,1.21-2.97,1.93-4.43,1.05-2.27,2.35-4.24,3.5-5.98,1.41-2.13,2.62-3.98,3.01-5.79.27-2.08-.09-3.73-1.08-5.05-3.22-2.5-8.92-3.43-15.99-4.29-1.63-.2-3.18-.39-4.68-.61-2.43-.27-5.42-1.26-7.01-3.22-1.06-.67-1.95-1.54-2.41-2.7-.54-1.36-.67-3.5,1.75-6,.03-.03.06-.06.09-.09,1.25-1.17,2.68-2.05,4.06-2.89,1.61-.99,3.12-1.92,4.09-3.16,4.7-7.59,3.46-18.96-3.79-34.75l-.15-.33c-.59-1.28-1.2-2.61-1.66-4.05-.32-1.06-.94-3.15.08-5.07.08-.16.18-.31.3-.44,2.18-2.58,5.58-2.15,8.31-1.8,3.85.49,4.28.16,4.6-.89.15-.78.28-1.55.4-2.3.83-4.96,1.77-10.59,8.73-13.15.19-.08.46-.18.73-.29,1.41-.55,2.86-1.12,3.57-1.97.81-.9,1.06-2.4,1.32-3.99.19-1.14.38-2.33.79-3.48,1.61-4.73,6.06-8.33,11.31-9.16,2.03-.38,4.04-.25,5.99-.12,1.04.07,2.02.13,2.95.11,1.36-.03,2.75-.32,4.22-.63,2.04-.43,4.14-.87,6.48-.69,2.5.08,4.89,1.01,7.01,1.83,2.15.83,4.18,1.63,5.69,1.31.75-.41,1.48-2.04,2.01-3.25.13-.3.26-.59.39-.87,6.14-15.75,20.1-23.2,33.61-30.42.16-.08.33-.16.49-.25-7.24-3.19-15.72-2.86-24.59-2.49-7.11.29-14.46.6-21.43-.98-.17-.04-.34-.1-.5-.17-2.46-1.14-2.9-2.95-2.94-3.92-.05-1.15.37-2.19.98-3.09.6-2.36,3-4.3,4.58-5.2,1.58-1.05,3.48-1.88,5.32-2.69,1.01-.44,2.55-1.12,3.68-1.76-.1-.12-.2-.23-.34-.38-5.49-3.26-12.48-3.15-19.88-3.05-9.91.14-21.12.3-30.68-7.85-.15-.08-.26-.13-.35-.16-.08.09-.17.18-.24.25-.47.55-1.33,3.23-1.96,5.18-1.75,5.46-3.73,11.65-8.11,12.89-2.09.6-4.25-.04-6.41-1.89-.07-.06-.14-.12-.2-.19l-1.16-1.25c-2.99-3.23-5.82-6.29-7.78-6.09-1.03.1-2.84,1.14-5.6,5.55-1.69,2.75-4.09,4.6-6.41,6.4-1.11.86-2.15,1.66-3.11,2.55l-.6.61c-3.41,3.43-7.28,7.33-13.25,7.04-9.23.06-17.11-4.82-24.72-9.56-1.19-.74-2.39-1.49-3.6-2.22-2.91-1.89-5.95-1.63-9.79-1.29-.73.06-1.47.13-2.22.18-.04,0-.09,0-.13,0h-.23s-.03,0-.05,0c-9.83,0-11.88-6.68-13.23-11.11-1.38-4.52-1.91-5.67-5.89-4.76-10.8,2.32-22.67,7.07-35.33,14.12,3.45,1.43,5.69,4.9,6.35,10.03.33,2.05.66,5.24-.55,8.29-.96,2.61-2.98,4.76-4.94,6.83-.96,1.02-1.96,2.07-2.78,3.14-1.22,1.53-2.33,3.11-3.32,4.74-1.2,1.97-2.29,4.14-3.25,6.47-.8,2.1-3.33,8.66-9.77,7.73-.04,0-.08-.01-.13-.02-9.56-1.88-17.36-8.09-22.21-12.97-.7-.71-1.32-1.4-1.87-2.02-.08-.09-.16-.18-.25-.28-.03.23-.06.44-.1.64-.57,4.62-1.95,9.14-4,13.08-2.02,3.68-4.26,7.78-7.67,7.56-1.8-.12-3.19-1.38-4.1-3.75-1.01-2.76-2.21-5.8-4.03-8.04.03,9.2-4.47,17.79-11.77,22.01-4.09,2.41-7.74,2.33-9.98-.25-2.81-3.35-1.45-8.15-.53-11.36h-.04c-5.06,2.27-6.89,8.45-5.74,19.44.47,2.95,1.21,3.38,1.21,3.38.59.29,3.05-1.12,4.23-1.79,3.26-1.86,8.7-4.97,12.11.44Z" fill="#ddd7ce"/>
  <path id="gyeongsang" d="M461.08,549.41c-1.7.1-5.83,1.79-8.4,2.84-6.2,2.54-10.67,4.37-13.29,2.14l-.07-.06s-.01-.01-.02-.02c-1.89-1.61-1.78-4.46-1.54-6.46,10.84-66.8,18.54-137.41,1.76-201.87-.11-.5-.23-.89-.35-1.23-.74,1.07-1.66,2.07-2.76,2.99-2.12,1.96-3.85,3.84-5.28,5.76-.81,1.04-1.55,2.18-2.26,3.29-2.69,4.17-6.03,9.35-12.99,7.09-1.45-.47-2.91-1.06-4.32-1.63-2.86-1.16-5.55-2.26-8.26-2.41-4.37-.36-8.55,1.22-12.97,2.88-3.05,1.15-6.21,2.34-9.53,2.91-4.36.9-8.05-.87-10.44-2.28-1.38-.76-2.88-1.59-4.01-1.31-1.33.29-2.83,1.54-4.28,2.75-2,1.67-4.07,3.41-6.62,3.62-.21.02-.42.02-.62.02-3.57,0-6.25-2.4-8.42-4.35-.49-.44-.95-.85-1.41-1.23-.27-.23-.55-.45-.81-.64-.04-.03-.08-.06-.12-.09,0,0-.01,0-.02-.01-1.07.2-2.24.71-3.56,1.4-12.7,6.78-25.86,13.81-31.31,27.88-.02.05-.04.11-.07.16-.13.27-.26.56-.39.86-.97,2.17-2.17,4.87-4.88,5.92-.08.03-.17.06-.26.08-3.1.83-6.07-.33-8.95-1.44-1.92-.75-3.74-1.45-5.39-1.5-.04,0-.09,0-.13,0-1.64-.13-3.33.22-5.12.6-1.63.34-3.31.69-5.14.73-1.16.02-2.29-.05-3.38-.12-1.72-.11-3.34-.22-4.82.06-3.46.54-6.42,2.9-7.43,5.87-.27.76-.42,1.68-.58,2.65-.35,2.13-.74,4.54-2.48,6.46-1.46,1.75-3.61,2.6-5.51,3.34l-.76.3c-4.14,1.53-4.74,4.1-5.61,9.32-.14.84-.28,1.69-.45,2.56-.01.08-.03.15-.05.22-1.64,5.61-6.91,4.95-10.06,4.55-1.21-.15-2.79-.35-3.53-.12.03.2.1.51.25,1.01.35,1.1.87,2.23,1.43,3.43l.16.34c8.04,17.51,9.16,30.46,3.43,39.59-.04.06-.08.12-.12.17-1.53,2.03-3.65,3.34-5.53,4.49-1.2.74-2.34,1.44-3.21,2.24-.33.35-.49.59-.56.73.29.28.99.61,1.93.9,1.05.33,2.4.6,3.86.68.06,0,.12,0,.17.02l1.25.15c7.92.95,16.85,2.03,21.41,6.97.22.24.45.49.65.75,1.88,2.43,2.58,5.43,2.11,8.92,0,.05-.02.11-.03.16-.56,2.78-2.11,5.13-3.75,7.62-1.1,1.67-2.24,3.4-3.16,5.37-.66,1.37-1.22,2.73-1.82,4.18-.67,1.65-1.37,3.35-2.2,4.99-.63,1.33-1.45,2.56-2.25,3.75-1.04,1.55-2.02,3.02-2.44,4.59-.05.19-.1.39-.13.59,0,.03-.01.07-.02.1-.24,1.45-.05,2.95.16,4.66.22,1.74.47,3.72.28,5.9-.21,2.54-.87,4.87-1.9,6.73-1.08,2.02-2.62,3.48-4.32,4.72-1.12.82-2.31,1.54-3.49,2.24-.67.4-1.35.81-2.04,1.25-.4.26-.8.54-1.19.81-12.62,8.57-22.88,21.94-27.56,36.06-2.75,9.06-1.82,18.49-.83,28.47.92,9.27,1.87,18.86-.18,28.72-.38,3.26-2.11,5.81-3.64,8.07-.56.83-1.09,1.61-1.49,2.33-1.33,2.69.55,6.22,5.79,10.72,5.84,4.67,9.35,9.59,11,15.45,2.99,9.4,4.66,19.06,6.11,28.13.42,2.23.87,2.58.96,2.63.06.03.24.06.57,0,.29-.04.7-.15,1.25-.38.06-.02.11-.04.17-.06,1.23-.4,2.47-.84,3.73-1.28,5.61-1.97,11.4-4,17.3-4,.53,0,1.06.02,1.59.05.04,0,.07,0,.11,0,5.89.64,11.15,3.33,16.24,5.92l.72.37c4.67,2.44,9.31,4.89,13.95,7.33,5.46,2.88,10.92,5.75,16.38,8.6,1.41.74,2.72,1.14,3.63,1.1,3.35-.46,4.6-8.32,4.02-13.79-.14-1.45-.57-2.97-1.02-4.57-1.06-3.76-2.25-8.03.11-12.28.03-.05.05-.09.08-.14.32-.5.65-1.06,1-1.65,2.37-3.97,6.33-10.6,12.97-8.3.04.01.08.03.12.04,3.69,1.49,9.03,2.71,13.45.04,1.29-.84,2.34-1.72,3.36-2.58,3.17-2.67,6.16-5.2,13.07-1.5,21.51,10.32,48.06,8.92,66.14-3.49,2.73-2.3,4.54-5.7,6.45-9.3.43-.8.86-1.61,1.29-2.4,2.89-5.38,5.82-10.78,8.75-16.18,4.51-8.31,9.17-16.9,13.65-25.39,1.58-3.16,2.75-6.63,3.55-10.57,3.32-16.47,6.62-32.95,9.92-49.43l4.8-23.92c.35-1.5.43-2.68.39-3.33Z" fill="#ddd7ce"/>
  <path id="gyeonggi" d="M40.49,208.32c.33-.44.69-1.36.83-1.7l.15-.37c.46-1.12,1.65-1.74,2.84-1.49,1.18.25,2.01,1.32,1.97,2.52-.4,12.63,9.94,25.18,22.13,26.86.08.01.17.03.25.05,1.27.31,2.96.31,4.75.31,3.71,0,7.91,0,10.71,2.88.04.04.08.09.12.13,1.78,2.11,1.86,4.89,1.71,7.32-.23,2.48-.5,4.94-.77,7.33-.25,2.2-.49,4.39-.7,6.56,0,.05,0,.09-.02.14-.55,3.66,1.07,6.82,4.83,9.42.04.03.08.06.12.09,12.33,9.69,18.98,26.56,16.55,41.99-.96,6.73-4.55,12.31-8.02,17.72-.59.92-1.17,1.83-1.74,2.74l-5.89,9.29c-.48.76-1.61,2.54-1.96,3.59,1.34.22,3.1-.28,4.71-.93,1.34-.54,2.58-1.17,3.39-1.6,14.44-8.43,27.99-14.05,40.28-16.68,8.64-1.96,10.52,4.14,11.75,8.18,1.35,4.4,2.32,7.57,8.42,7.57h.17c.7-.05,1.39-.11,2.06-.17,4.22-.37,8.59-.74,12.88,2.04,1.16.7,2.38,1.46,3.59,2.21,7.34,4.57,14.28,8.9,22.1,8.8.05,0,.11,0,.16,0,3.81.22,6.44-2.47,9.52-5.57l.68-.68c1.19-1.11,2.38-2.03,3.53-2.91,2.06-1.59,4-3.09,5.22-5.07,3.18-5.09,6.16-7.59,9.38-7.9,4.46-.42,7.9,3.33,11.92,7.68l1.05,1.13c.72.59,1.34.88,1.69.79,1.79-.51,3.69-6.43,4.71-9.61,1.2-3.74,1.96-5.98,3.23-7.23.79-.92,3.09-2.92,6.81-.71.13.08.25.16.36.26,8.16,7.07,18.01,6.93,27.53,6.79,7.9-.11,16.05-.23,22.81,3.93.15.09.29.2.42.33,2.01,1.93,2.85,3.89,2.51,5.81-.02.11-.05.22-.08.33-.78,3.1-4.41,4.7-7.94,6.24-1.66.72-3.37,1.47-4.55,2.27-.02.01-.04.02-.06.04-.03.02-.07.04-.1.07-.81.47-1.5,1.07-1.91,1.54,6.11,1.23,12.81.96,19.31.69,10.99-.46,22.35-.91,31.77,5.7.52.36,1.03.73,1.53,1.14.02.01.04.03.05.04.89.65,1.73,1.4,2.54,2.12,1.04.94,2.06,1.83,3.06,2.42.75.44,1.5.71,2.24.65.96-.08,2.48-1.35,3.81-2.47,1.82-1.52,3.89-3.25,6.37-3.79,1.97-.48,3.82.03,5.42.73.72.32,1.39.67,1.99,1,.07.04.14.07.2.11,2.76,1.63,4.91,2.15,7.03,1.71,2.93-.51,5.73-1.56,8.7-2.68,4.74-1.79,9.65-3.63,15.07-3.19,3.48.19,6.69,1.5,9.8,2.77,1.38.56,2.69,1.09,3.97,1.51,1.98.64,3.22.22,4.65-1.39.77-.87,1.59-2.07,2.61-3.65.77-1.2,1.57-2.43,2.49-3.61,1.26-1.68,2.74-3.35,4.46-5.05.47-.46.95-.92,1.45-1.39.03-.03.07-.06.1-.09.37-.31.87-.77,1.36-1.36.79-.96,1.55-2.27,1.74-3.87.11-.96.02-2.03-.42-3.18-.02-.04-.03-.08-.04-.12-4.37-13.81-10.13-27.24-17.1-39.91-10.3-18.74-23.78-35.74-36.81-52.18-5.2-6.55-10.57-13.33-15.69-20.15-18.56-23.55-31.6-50.82-44.2-77.18-9.09-19.01-18.48-38.67-29.87-56.71-22.23-34.66-45.6-54.66-71.43-61.11-2.14-.57-3.57-.46-3.97-.25-.28,2.87.37,5.95,1.04,9.21.39,1.86.79,3.79,1.01,5.73.07.46.17,1,.26,1.52.57,3.31,1.17,6.73-1.47,9.12-.07.07-.15.13-.23.19-2.31,1.63-4.97,1.19-6.92.86-.27-.05-.54-.09-.81-.13-.08-.01-.15-.03-.23-.04-5.12-1.25-6.89.17-8.22,3.02-4.14,8.59-11.31,15.38-19.69,18.65-2.54.93-5.44,1.63-8.11.05-.04-.02-.07-.04-.11-.07-3.24-2.16-3.89-6.62-4.46-10.56-.32-2.21-.65-4.51-1.36-5.73-1.21-2.06-2.61-3.1-4.1-4.2-3.51-2.6-5.95-5.03-5.25-12.68-.03-1.02.06-2.19.16-3.42.11-1.4.37-4.54-.09-5.5-3.77,1.04-6.96,5.54-8.52,9.74-.42,1.16-.67,2.48-.92,3.77-.43,2.23-.87,4.53-2.26,6.23-2.32,2.95-5.92,3.24-8.82,3.47-.47.04-.94.08-1.39.12-.04,0-.07,0-.11,0-2.56.17-5.41.56-7.26,2.17-2.65,3.07-3.98,6.01-5.26,8.87-2.56,5.68-4.98,11.06-16.29,14.09-1.73.59-3.46,1.17-5.2,1.75-2.86.96-5.82,1.95-8.66,2.96-2.1.78-3.53,1.81-4.21,3.03-.66,1.14-.97,2.88-.92,5.06.37,19.04,8.39,37.8,22,51.49,3.46,3.29,3.63,6.36,3.17,8.35-1.35,5.72-9.15,8.68-12.44,9.69-5.14,1.5-10.47,1.58-15.46.22-.91-.22-1.8-.54-2.67-.86-1.42-.52-2.64-.97-3.77-.85-.58.08-1.54.8-2.55,1.56-.43.33-.88.66-1.35.99-.49.37-1,.72-1.51,1.07-.97.66-1.89,1.28-2.44,2.01-.57.93-.91,2.17-1.26,3.47-.47,1.73-1.01,3.69-2.24,5.44-3.97,6.38-10.93,9.47-17.07,12.2-4.7,2.17-8.8,4.29-10.99,8.06-.03.06-.07.11-.11.17-1.4,2.02-1.67,6.08-.58,8.52.45,1,.97,1.41,1.37,1.59Z" fill="#ddd7ce"/>
</svg>